<?xml version="1.0" encoding="UTF-8"?>
<svg xmlns="http://www.w3.org/2000/svg" xmlns:xlink="http://www.w3.org/1999/xlink" viewBox="0 0 64 64" width="64px" height="64px">
<g id="surface14794905">
<path style=" stroke:none;fill-rule:nonzero;fill:rgb(94.509804%,76.862746%,5.882353%);fill-opacity:1;" d="M 11.835938 57.296875 C 12.703125 57.683594 13.621094 57.878906 14.519531 57.878906 C 16.070312 57.878906 17.589844 57.316406 18.816406 56.226562 L 29.671875 46.574219 C 30.996094 45.394531 32.996094 45.394531 34.320312 46.574219 L 45.175781 56.226562 C 47.113281 57.949219 49.789062 58.359375 52.15625 57.296875 C 54.519531 56.230469 55.988281 53.960938 55.988281 51.363281 L 55.988281 12 C 55.988281 8.414062 53.074219 5.5 49.488281 5.5 L 14.5 5.5 C 10.914062 5.5 8 8.414062 8 12 L 8 51.363281 C 8 53.960938 9.46875 56.234375 11.835938 57.296875 Z M 11 12 C 11 10.070312 12.570312 8.5 14.5 8.5 L 49.5 8.5 C 51.429688 8.5 53 10.070312 53 12 L 53 51.363281 C 53 52.785156 52.230469 53.976562 50.933594 54.558594 C 49.640625 55.140625 48.234375 54.925781 47.175781 53.984375 L 36.320312 44.335938 C 35.089844 43.238281 33.546875 42.695312 32 42.695312 C 30.453125 42.695312 28.914062 43.238281 27.679688 44.335938 L 16.824219 53.984375 C 15.765625 54.925781 14.359375 55.144531 13.066406 54.558594 C 11.769531 53.980469 11 52.785156 11 51.363281 Z M 11 12 "/>
<path style=" stroke:none;fill-rule:nonzero;fill:rgb(70.588237%,70.588237%,50.588238%);fill-opacity:1;" d="M 34.238281 18.226562 L 34.238281 25.863281 L 41.535156 25.863281 L 41.535156 29.007812 L 34.238281 29.007812 L 34.238281 37.277344 L 30.894531 37.277344 L 30.894531 29.007812 L 23.597656 29.007812 L 23.597656 25.863281 L 30.894531 25.863281 L 30.894531 18.226562 Z M 34.238281 18.226562 "/>
</g>
</svg>
